<svg xmlns="http://www.w3.org/2000/svg" xmlns:xlink="http://www.w3.org/1999/xlink" width="500" zoomAndPan="magnify" viewBox="0 0 375 374.999991" height="500" preserveAspectRatio="xMidYMid meet" version="1.0"><defs><clipPath id="ec841cf5db"><path d="M 54.042969 25.730469 L 321 25.730469 L 321 348.980469 L 54.042969 348.980469 Z M 54.042969 25.730469 " clip-rule="nonzero"/></clipPath></defs><rect x="-37.5" width="450" fill="#ffffff" y="-37.499999" height="449.999989" fill-opacity="1"/><rect x="-37.5" width="450" fill="#ffffff" y="-37.499999" height="449.999989" fill-opacity="1"/><g clip-path="url(#ec841cf5db)"><path fill="#004aad" d="M 166.15625 325.183594 C 160.933594 309.953125 151.378906 296.582031 138.660156 286.707031 L 107.398438 262.4375 C 75.296875 237.515625 55.804688 199.71875 54.113281 159.117188 C 54.113281 85.449219 113.832031 25.730469 187.496094 25.730469 C 261.164062 25.730469 320.882812 85.449219 320.882812 159.117188 C 319.191406 199.71875 299.699219 237.515625 267.597656 262.4375 L 236.335938 286.707031 C 223.617188 296.582031 214.058594 309.953125 208.839844 325.183594 L 205.164062 335.90625 C 202.574219 343.453125 195.476562 348.523438 187.496094 348.523438 C 179.519531 348.523438 172.421875 343.453125 169.832031 335.90625 Z M 187.496094 393.875 C 158.03125 393.875 134.144531 390.292969 134.144531 385.871094 C 134.144531 381.453125 158.03125 377.871094 187.496094 377.871094 C 216.964844 377.871094 240.851562 381.453125 240.851562 385.871094 C 240.851562 390.292969 216.964844 393.875 187.496094 393.875 Z M 187.496094 263.15625 C 246.433594 263.15625 294.207031 215.382812 294.207031 156.449219 C 294.207031 97.515625 246.433594 49.742188 187.496094 49.742188 C 128.5625 49.742188 80.789062 97.515625 80.789062 156.449219 C 80.789062 215.382812 128.5625 263.15625 187.496094 263.15625 Z M 118.136719 196.371094 L 118.339844 124.429688 L 180.953125 160.59375 L 181.003906 232.519531 Z M 194.519531 160.585938 L 256.65625 124.441406 L 256.859375 196.367188 L 194.519531 232.628906 Z M 125.105469 112.558594 L 187.296875 76.417969 L 249.90625 112.566406 L 187.714844 148.707031 Z M 125.105469 112.558594 " fill-opacity="1" fill-rule="nonzero"/></g></svg>